<?xml version="1.0" standalone="no"?>
<!DOCTYPE svg PUBLIC "-//W3C//DTD SVG 20010904//EN"
 "http://www.w3.org/TR/2001/REC-SVG-20010904/DTD/svg10.dtd">
<svg version="1.0" xmlns="http://www.w3.org/2000/svg"
 width="310.000000pt" height="310.000000pt" viewBox="0 0 310.000000 310.000000"
 preserveAspectRatio="xMidYMid meet">
<metadata>
Created by potrace 1.11, written by Peter Selinger 2001-2013
</metadata>
<g transform="translate(0.000000,310.000000) scale(0.100000,-0.100000)"
fill="#000000" stroke="none">
<path d="M0 1550 l0 -1550 1550 0 1550 0 0 1550 0 1550 -1550 0 -1550 0 0
-1550z m3080 0 l0 -1530 -1353 0 c-745 0 -1395 3 -1445 6 l-92 7 0 1518 0
1518 63 4 c34 2 684 4 1445 5 l1382 2 0 -1530z"/>
<path d="M698 2600 c-9 -6 -23 -29 -32 -53 -27 -73 -426 -1527 -426 -1551 0
-13 7 -27 16 -30 20 -8 272 -8 301 0 23 6 37 40 68 164 9 36 23 89 31 117 l15
53 260 0 c142 0 259 -2 259 -4 0 -31 86 -314 98 -323 11 -9 61 -13 164 -13
133 0 148 2 157 18 8 14 -43 210 -205 803 -185 674 -219 787 -240 807 -24 21
-31 22 -237 22 -119 0 -219 -5 -229 -10z m327 -677 c51 -197 92 -359 91 -361
-2 -1 -89 -1 -193 0 l-190 3 96 368 c52 203 97 364 99 358 2 -6 46 -171 97
-368z"/>
<path d="M1730 2021 c-14 -27 -14 -1515 0 -1542 10 -17 23 -19 163 -19 106 0
157 4 165 12 9 9 12 81 12 264 l0 252 23 6 c12 3 118 6 235 6 252 0 312 11
406 74 70 47 119 113 142 193 13 44 15 96 12 276 -3 217 -4 223 -30 279 -48
104 -151 181 -276 207 -34 7 -196 11 -447 11 -380 0 -395 -1 -405 -19z m763
-273 c40 -27 49 -74 45 -250 -3 -157 -3 -158 -31 -185 l-27 -28 -203 0 -202 0
-3 230 c-1 126 0 236 3 243 4 11 42 13 198 10 163 -2 197 -6 220 -20z"/>
</g>
</svg>
