<?xml version="1.0" standalone="no"?>
<!DOCTYPE svg PUBLIC "-//W3C//DTD SVG 20010904//EN"
 "http://www.w3.org/TR/2001/REC-SVG-20010904/DTD/svg10.dtd">
<svg version="1.0" xmlns="http://www.w3.org/2000/svg"
 width="260.000000pt" height="260.000000pt" viewBox="0 0 260.000000 260.000000"
 preserveAspectRatio="xMidYMid meet">
<metadata>
Created by potrace 1.14, written by Peter Selinger 2001-2017
</metadata>
<g transform="translate(0.000000,260.000000) scale(0.100000,-0.100000)"
fill="#000000" stroke="none">
<path d="M618 2590 c-277 -48 -502 -251 -590 -530 l-23 -75 0 -685 0 -685 23
-75 c66 -210 199 -368 387 -461 156 -76 128 -74 885 -74 757 0 729 -2 885 74
150 74 262 186 336 336 76 156 74 128 74 885 0 757 2 729 -74 885 -92 186
-246 316 -456 386 l-70 24 -665 1 c-366 1 -686 -2 -712 -6z m1362 -191 c173
-34 338 -180 402 -354 20 -55 22 -89 31 -402 5 -208 5 -478 0 -685 -9 -314
-11 -348 -31 -403 -63 -172 -222 -314 -400 -355 -80 -19 -1287 -20 -1362 -1
-183 45 -340 184 -401 356 -33 92 -41 309 -35 885 7 540 9 559 60 664 60 122
180 229 311 278 56 22 80 23 375 28 452 7 985 2 1050 -11z"/>
<path d="M745 2028 c-7 -18 -354 -1178 -361 -1205 -6 -23 -5 -23 103 -23 l109
0 12 48 c7 26 27 98 44 160 l30 112 187 0 186 0 34 -128 c19 -70 38 -142 43
-159 l9 -33 115 0 114 0 -6 24 c-3 13 -86 291 -183 618 l-178 593 -127 3 c-96
2 -128 -1 -131 -10z m194 -465 c35 -131 66 -244 69 -250 3 -10 -29 -13 -138
-13 -131 0 -142 1 -138 18 76 285 132 482 137 482 4 0 35 -107 70 -237z"/>
<path d="M1470 966 l0 -666 100 0 100 0 0 244 0 244 153 5 c173 5 221 18 287
74 108 92 160 268 131 439 -25 141 -94 240 -204 290 l-62 29 -252 3 -253 4 0
-666z m474 431 c60 -34 91 -100 91 -196 -1 -99 -29 -155 -95 -188 -38 -20 -60
-23 -157 -23 l-113 0 0 215 0 215 118 0 c102 0 122 -3 156 -23z"/>
</g>
</svg>
